<?xml version="1.0" encoding="UTF-8"?>
<svg id="Laag_1" data-name="Laag 1" xmlns="http://www.w3.org/2000/svg" viewBox="0 0 486.91 80.51">
  <defs>
    <style>
      .cls-1 {
        fill: #fff;
      }

      .cls-1, .cls-2 {
        stroke-width: 0px;
      }

      .cls-2 {
        fill: #004c4b;
      }
    </style>
  </defs>
  <rect class="cls-2" width="486.91" height="80.51"/>
  <g>
    <path class="cls-1" d="m64.98,40.67c0,22.68-6.63,29.06-25.3,29.06-9,0-16.37-.33-23.17-.82V12.43c6.88-.41,14-.82,23.17-.82,18.67,0,25.3,6.39,25.3,29.06Zm-16.21,0c0-13.92-1.96-17.6-9.09-17.6h-7.78v35.04c2.37.08,4.99.08,7.78.08,7.12,0,9.09-3.6,9.09-17.52Z"/>
    <path class="cls-1" d="m110.66,57.37l1.31,9.09c-5.32,2.7-12.28,3.44-18.91,3.44-16.29,0-22.27-6.79-22.27-21.12,0-16.05,6.14-21.69,22.02-21.69,14.65,0,20.22,4.91,20.3,14.41.08,7.45-3.68,10.97-14.24,10.97h-12.2c.66,4.58,2.78,5.89,8.02,5.89,3.52,0,9.58-.25,15.96-.98Zm-24.23-12.61h8.27c3.52,0,4.09-1.06,4.09-3.6,0-3.19-1.47-4.01-5.57-4.01-4.99-.08-6.55,1.06-6.79,7.61Z"/>
    <path class="cls-1" d="m157.82,57.37l1.31,9.09c-5.32,2.7-12.28,3.44-18.91,3.44-16.29,0-22.27-6.79-22.27-21.12,0-16.05,6.14-21.69,22.02-21.69,14.65,0,20.22,4.91,20.3,14.41.08,7.45-3.68,10.97-14.24,10.97h-12.2c.66,4.58,2.78,5.89,8.02,5.89,3.52,0,9.58-.25,15.96-.98Zm-24.23-12.61h8.27c3.52,0,4.09-1.06,4.09-3.6,0-3.19-1.47-4.01-5.57-4.01-4.99-.08-6.55,1.06-6.79,7.61Z"/>
    <path class="cls-1" d="m181.56,54.75c0,2.46,1.39,3.52,4.34,3.52h2.95l1.72,9.82c-2.29,1.31-8.02,1.88-10.97,1.88-7.94,0-12.85-4.17-12.85-11.3V11.61h14.82v43.14Z"/>
    <path class="cls-1" d="m212.83,24.79v3.44h10.31v9.33h-10.31v31.35h-14.98v-31.35h-6.96v-8.92l6.96-.41v-5.48c0-7.61,3.68-12.93,14.24-12.93,3.11,0,10.23.25,14.08.98l-1.39,9.25h-7.37c-3.52,0-4.58,1.23-4.58,4.75Z"/>
    <path class="cls-1" d="m267.36,42.96v25.95h-11.79l-1.39-5.98c-2.78,3.44-7.45,7.04-14.49,7.04-7.61,0-13.67-4.01-13.67-11.62v-4.09c0-6.47,4.91-10.4,13.02-10.4h13.51v-.98c-.08-3.44-1.39-4.67-5.65-4.67s-10.64.16-17.44.57l-1.31-9.66c6.06-1.15,16.29-2.05,22.27-2.05,10.97,0,16.95,3.77,16.95,15.88Zm-22.76,16.54c2.37,0,5.24-1.06,7.94-2.87v-4.99h-8.51c-2.46.08-3.44,1.31-3.44,3.19v1.39c0,2.13,1.23,3.27,4.01,3.27Z"/>
    <path class="cls-1" d="m318.11,48.12c0,11.71-3.52,21.78-21.04,21.78-5.81,0-16.95-.98-21.78-3.27V11.61h14.9l.08,12.03c.08,3.27-.25,6.63-1.15,9.66,3.6-3.52,8.51-6.22,13.75-6.22,11.05,0,15.23,6.06,15.23,21.04Zm-15.31.08c0-7.78-1.15-9.66-5.98-9.66-2.7,0-4.5.9-6.71,2.05l.08,18.42c2.21.41,4.91.57,6.63.49,4.42-.16,5.98-2.37,5.98-11.3Z"/>
    <path class="cls-1" d="m356.35,27.08l-1.31,13.67h-3.93c-2.95,0-6.14.49-11.22,1.72v26.44h-14.9V28.23h11.62l1.31,5.98c5.32-4.75,10.89-7.12,16.21-7.12h2.21Z"/>
    <path class="cls-1" d="m376.24,14.31v4.26c0,2.95-1.39,4.34-4.26,4.34h-6.47c-2.87,0-4.34-1.39-4.34-4.34v-4.26c0-2.95,1.47-4.42,4.34-4.42h6.47c2.87,0,4.26,1.47,4.26,4.42Zm-.08,54.6h-14.82V28.23h14.82v40.69Z"/>
    <path class="cls-1" d="m423.15,57.37l1.31,9.09c-5.32,2.7-12.28,3.44-18.91,3.44-16.29,0-22.27-6.79-22.27-21.12,0-16.05,6.14-21.69,22.02-21.69,14.65,0,20.22,4.91,20.3,14.41.08,7.45-3.68,10.97-14.24,10.97h-12.2c.66,4.58,2.78,5.89,8.02,5.89,3.52,0,9.58-.25,15.96-.98Zm-24.23-12.61h8.27c3.52,0,4.09-1.06,4.09-3.6,0-3.19-1.47-4.01-5.57-4.01-4.99-.08-6.55,1.06-6.79,7.61Z"/>
    <path class="cls-1" d="m449.26,50.74h-2.95c.33,2.13.57,4.26.57,6.06v12.12h-14.9V11.61h14.9v22.76c0,2.54-.16,5.16-.57,7.7h3.03l8.76-13.83h16.37l-9.41,13.67c-1.15,1.96-3.19,3.77-4.26,4.42v.33c1.06.57,3.11,2.86,4.26,4.91l10.89,17.35h-16.46l-10.23-18.17Z"/>
  </g>
</svg>